<svg width="397" height="368" viewBox="0 0 397 368" fill="none" xmlns="http://www.w3.org/2000/svg">
<path d="M185.236 2.20499C175.236 5.13833 164.17 16.0717 160.836 26.3383C155.903 41.805 158.97 55.005 170.303 66.3383C174.436 70.4717 179.903 74.8717 182.303 76.0717L186.57 78.3383V184.205V290.072L181.103 292.472C167.77 298.605 158.57 313.672 158.57 329.538C158.57 339.805 161.636 346.872 169.903 355.672C178.57 365.005 186.97 368.338 199.903 367.538C216.303 366.605 227.503 359.005 234.836 343.805C243.37 326.338 233.37 301.005 214.703 292.472L209.236 290.072V184.205C209.236 84.605 209.37 78.3383 211.636 77.5383C212.836 77.005 216.436 75.005 219.37 73.005C232.303 64.205 240.17 46.3383 237.236 32.8717C234.036 17.5383 223.77 5.80499 210.17 1.80499C201.77 -0.72834 194.703 -0.595006 185.236 2.20499ZM204.303 25.6717C218.703 31.6717 215.236 52.3383 199.503 54.0717C191.903 55.005 187.236 52.3383 184.303 45.5383C180.703 36.7383 184.97 27.9383 194.036 25.1383C199.37 23.5383 199.503 23.5383 204.303 25.6717ZM209.37 317.272C215.77 324.072 216.036 330.472 210.57 337.538C204.436 345.272 190.036 344.872 185.236 336.738C178.436 325.672 186.17 313.272 199.636 313.138C204.436 313.138 206.17 313.805 209.37 317.272Z" fill="black"/>
<path d="M89.6364 47.2718C82.703 49.8051 72.5697 58.6051 69.2364 65.0051C58.9697 85.4051 66.5697 110.738 86.303 121.005C91.903 123.938 104.036 125.272 111.503 123.672L118.57 122.338L125.77 130.072L133.103 137.805L133.236 153.272C133.236 168.338 133.103 168.872 130.303 169.672C128.57 170.072 116.036 170.472 102.303 170.472H77.2364L75.2364 165.672C71.6364 157.138 65.503 150.738 56.303 146.205C44.5697 140.472 33.103 140.338 22.0364 145.672C-9.03031 160.872 -6.76364 206.205 25.7697 218.338C34.703 221.672 39.3697 221.805 49.6364 219.138C62.303 215.805 70.703 208.738 76.0364 196.605L77.7697 192.872L103.236 193.272C117.103 193.538 129.636 193.938 130.97 194.205C132.97 194.738 133.236 196.738 133.236 213.672V232.605L127.37 238.338L121.37 244.205L116.036 241.938C98.8364 235.138 77.503 244.738 68.303 263.538C65.3697 269.538 64.703 272.872 64.703 280.472C64.703 288.472 65.2364 291.005 69.2364 298.338C76.8364 312.472 87.903 319.005 104.57 319.005C130.703 318.872 149.236 292.472 140.57 267.805L138.57 262.072L148.036 252.205C154.036 245.805 157.103 241.538 156.703 240.205C156.303 239.138 155.903 213.272 155.903 182.605V127.005L146.436 116.738L136.97 106.472L140.17 100.072C148.97 82.2051 138.97 57.5384 119.37 48.3384C111.37 44.6051 98.5697 44.2051 89.6364 47.2718ZM111.636 71.8051C117.77 75.5384 120.703 82.7384 118.703 89.2718C116.57 96.3384 111.636 99.8051 104.036 99.8051C94.9697 99.6718 89.2364 94.0718 89.2364 85.1384C89.2364 79.1384 92.4364 73.8051 97.503 71.4051C103.37 68.4718 106.303 68.6051 111.636 71.8051ZM44.4364 167.005C54.8364 171.272 58.0364 183.805 50.8364 191.538C40.9697 202.072 23.503 195.538 23.503 181.272C23.503 175.138 26.703 170.072 32.303 167.272C37.6364 164.738 38.8364 164.605 44.4364 167.005ZM113.636 268.872C124.303 280.072 118.17 294.472 102.703 294.472C96.0364 294.472 90.8364 290.338 89.3697 283.805C86.9697 273.005 93.103 265.138 103.77 265.138C108.97 265.138 110.703 265.805 113.636 268.872Z" fill="black"/>
<path d="M281.236 46.3384C270.57 49.6717 258.97 60.8717 255.37 71.405C252.303 80.3384 252.57 91.9384 256.17 99.9384L258.97 106.605L250.97 114.872C246.436 119.405 242.17 124.472 241.37 126.072C240.303 128.072 239.903 146.872 239.903 186.338V243.805L248.703 253.005L257.37 262.338L255.37 268.472C250.836 281.672 253.77 294.472 264.036 305.672C272.436 314.872 281.236 318.872 293.236 318.872C308.036 318.872 319.77 311.938 327.636 298.472C330.836 293.272 331.236 291.005 331.236 281.138C331.236 271.805 330.703 268.738 328.17 263.805C318.57 245.405 298.57 236.072 281.103 241.805L274.036 244.205L268.303 237.672L262.57 231.138V212.072V193.138H290.97H319.503L321.903 198.472C325.77 207.005 336.836 216.605 345.903 219.272C375.77 227.938 403.903 200.738 395.37 171.405C391.103 156.872 378.836 145.538 364.303 142.605C346.97 139.272 330.436 146.872 323.236 161.672L319.77 168.738L301.636 169.538C291.636 170.072 278.836 170.472 272.97 170.472H262.57V154.472V138.472L269.503 130.872C274.303 125.538 277.37 123.272 279.236 123.538C280.703 123.805 286.436 124.072 291.903 124.205C308.303 124.605 320.436 117.272 328.17 102.472C332.836 93.2717 333.236 79.5384 328.836 70.0717C321.503 54.0717 308.57 45.005 293.37 45.2717C288.436 45.2717 283.103 45.805 281.236 46.3384ZM299.503 71.405C304.703 73.805 309.903 83.005 308.436 87.405C305.503 96.3384 300.97 99.805 291.77 99.805C287.236 99.805 285.503 99.005 281.636 95.1384C277.236 90.7384 276.97 89.9384 277.636 84.3384C278.303 77.6717 281.236 73.6717 287.236 71.005C292.57 68.7384 293.903 68.7384 299.503 71.405ZM366.17 168.472C373.503 173.405 375.77 183.672 370.836 190.338C369.503 192.205 366.036 194.605 363.236 195.672C353.103 199.538 342.17 192.072 342.303 181.405C342.57 168.472 355.37 161.405 366.17 168.472ZM303.103 269.138C308.703 274.072 310.036 279.272 307.37 285.538C303.636 294.738 293.103 298.205 285.236 292.872C278.836 288.472 276.57 284.205 277.77 277.805C280.036 265.672 293.77 261.005 303.103 269.138Z" fill="black"/>
</svg>
