<svg width="21" height="20" viewBox="0 0 21 20" fill="none" xmlns="http://www.w3.org/2000/svg">
<path d="M10.1215 -0.000244141C4.60746 -0.000244141 0.12146 4.48576 0.12146 9.99976C0.12146 15.5138 4.60746 19.9998 10.1215 19.9998C15.6355 19.9998 20.1215 15.5138 20.1215 9.99976C20.1215 4.48576 15.6355 -0.000244141 10.1215 -0.000244141ZM8.12246 14.4128L5.11691 11.4137C4.72616 11.0238 4.72537 10.391 5.11515 10.0001C5.50517 9.60894 6.13847 9.60822 6.52939 9.99845L8.12046 11.5868L12.7075 6.99976C13.0979 6.60929 13.731 6.60929 14.1215 6.99976C14.5119 7.39022 14.5119 8.02329 14.1215 8.41376L8.12246 14.4128Z" fill="#2FAB73"/>
</svg>
